<?xml version="1.0" encoding="UTF-8"?>
<svg width="1440px" height="214px" viewBox="0 0 1440 214" version="1.1" xmlns="http://www.w3.org/2000/svg" xmlns:xlink="http://www.w3.org/1999/xlink">
    <title>bg-wave</title>
    <g id="Page-1" stroke="none" stroke-width="1" fill="none" fill-rule="evenodd">
        <g id="1.5-Funders-&amp;-Partners-Corp" transform="translate(0.000000, -375.000000)">
            <g id="bg-wave" transform="translate(-0.000692, 375.000000)">
                <polygon id="Rectangle-Copy" fill="#EAE0D5" points="0.000692411952 179 104.987685 202 214.338359 179 527.021472 93 786.850897 156 1011.51553 93 1440.00069 93 1440.00069 214 0.000692411952 214"></polygon>
                <path d="M1440.00069,0 L1440.00069,124.375 C1344.28715,116.322917 1248.55382,122.459625 1152.80069,142.785124 C1009.171,173.273373 960.667359,185.14692 864.600692,186.746094 C768.534026,188.345267 678.238974,135.8125 528.735067,135.8125 C379.231161,135.8125 363.238192,181.404636 225.879599,200.679688 C134.307203,213.529722 59.0140033,208.885191 0,186.746094 L0,176.699219 C96.5916074,202.295573 192.658505,191.950989 288.200692,145.665468 C431.513974,76.2371853 502.453036,77.8464478 576.400692,86.4388489 C650.348349,95.03125 768.534026,131.258993 864.600692,123.255396 C924.162026,118.293165 983.723359,94.2561223 1043.28469,69.8375829 L1049.04869,67.473935 L1049.04869,67.473935 L1054.81269,65.1116701 C1087.47536,51.7365324 1120.13803,38.6093525 1152.80069,28.8129496 C1245.98536,0.864388489 1339.17003,0.0259316547 1388.51597,0.00077794964 L1440.00069,0 Z" id="multiwave" fill="#00524C" fill-rule="nonzero"></path>
            </g>
        </g>
    </g>
</svg>