<?xml version="1.0" encoding="UTF-8"?>
<svg width="114px" height="131px" viewBox="0 0 114 131" version="1.1" xmlns="http://www.w3.org/2000/svg" xmlns:xlink="http://www.w3.org/1999/xlink">
    <title>icon-friends</title>
    <g id="Page-1" stroke="none" stroke-width="1" fill="none" fill-rule="evenodd">
        <g id="1.2-Impact" transform="translate(-1116.000000, -1714.000000)" fill="#4FB075" fill-rule="nonzero">
            <g id="reach" transform="translate(79.000000, 1405.000000)">
                <g id="students" transform="translate(979.000000, 309.354266)">
                    <g id="Shape" transform="translate(58.000000, 0.000000)">
                        <path d="M56.9983612,2.25471013e-06 C53.9109718,0.00357800303 51.4090641,2.50775748 51.4055824,5.59785942 C51.4029012,8.69232648 53.9066113,11.203315 56.9983612,11.2068965 C58.4851811,11.2082155 59.9114772,10.6176119 60.9627731,9.56530238 C62.014069,8.51299287 62.6040323,7.08539326 62.6025878,5.5972672 C62.5987733,2.50292404 60.0899893,-0.00274364303 56.9983612,2.25471013e-06 L56.9983612,2.25471013e-06 Z M56.9983554,13.1148167 C55.2112738,13.1148167 53.4469711,13.2030722 51.704182,13.379641 C49.9622645,13.5561953 48.2474758,13.826913 46.5592762,14.1729439 C44.8713522,14.5201593 43.2106581,14.9427168 41.5873667,15.4511755 C40.036762,15.9337693 39.1705478,17.5830302 39.6525453,19.1350509 C40.1345428,20.6870717 41.7822594,21.5542307 43.3329715,21.0719826 C44.77147,20.6247106 46.2354059,20.2386541 47.7316285,19.9349887 C49.2268149,19.6289689 50.7562233,19.3994468 52.3023249,19.2452669 C52.8803154,19.1863336 53.4760641,19.1863336 54.0594665,19.1510891 L54.0594723,24.7259918 L45.5037908,35.576234 C44.8266865,36.3993282 44.6473499,37.5246019 45.0350067,38.5176871 C45.4226636,39.5107722 46.3166733,40.2163221 47.3719384,40.3619866 C48.4272035,40.5076511 49.4786504,40.0706443 50.1204091,39.2196555 L56.999409,30.4956777 L63.8783958,39.2196555 C64.5201545,40.0706443 65.5716014,40.5076511 66.6268665,40.3619866 C67.6821316,40.2163221 68.5761414,39.5107722 68.9637982,38.5176871 C69.351455,37.5246019 69.1721184,36.3993282 68.4950142,35.576234 L59.9393485,24.7259918 L59.9393341,19.1510891 C60.5272695,19.209878 61.1275007,19.209878 61.7078306,19.2452669 C63.253645,19.4041557 64.7720536,19.6277844 66.2670538,19.9349887 C67.762588,20.2410086 69.2269208,20.6253028 70.6654784,21.0731526 C72.2151894,21.5523272 73.8598974,20.6850401 74.341336,19.1348001 C74.8227745,17.5845602 73.9590999,15.9369069 72.4110572,15.4523599 C70.7869649,14.9462413 69.1378624,14.5219359 67.4499095,14.1764828 C65.7614372,13.8292674 64.0356443,13.560312 62.2935435,13.3831799 C60.5507355,13.2066255 58.7863896,13.1183411 56.9993613,13.1183411 L56.9983554,13.1148167 Z M23.8895996,26.056985 C23.12592,26.0481495 22.3886913,26.3368778 21.8339486,26.8622663 C20.5806544,28.0169112 19.3824894,29.2386506 18.2394177,30.5286544 C17.0961007,31.819236 16.0022081,33.1763342 14.97794,34.5975656 C13.9534136,36.0193894 12.9890259,37.5083075 12.0954258,39.0572422 C11.2021794,40.6061914 10.4018057,42.1816173 9.68374345,43.7817576 C8.9664288,45.3795434 8.33365394,47.0061748 7.78886663,48.643394 C7.24897601,50.275312 6.78580606,51.9243034 6.41077662,53.586237 C6.17446832,54.6145729 6.50570105,55.6908749 7.279149,56.4079114 C8.05259695,57.1249478 9.15013238,57.3732066 10.1564897,57.0587561 C11.1628471,56.7443056 11.9243267,55.9151714 12.1528137,54.8850663 C12.4837917,53.4185082 12.8902794,51.9572512 13.3701542,50.5054119 L13.3696534,50.5054119 C13.8507447,49.060636 14.4107445,47.6229234 15.0463061,46.2063864 C15.2849107,45.6767377 15.5890182,45.1588613 15.8502258,44.6321449 L20.6735617,47.4134213 L25.7839655,60.2639869 C26.1737465,61.2413359 27.0548709,61.9363153 28.0954275,62.0871329 C29.1359841,62.2379506 30.1778877,61.8216937 30.8286633,60.9951623 C31.4794388,60.1686309 31.640218,59.0573948 31.2504369,58.0800458 L27.1276343,47.7582822 L38.1294252,46.1604964 C39.6639511,45.9629011 40.7829436,44.6088441 40.6890594,43.0631652 C40.5951751,41.5174863 39.3205385,40.3090735 37.773398,40.2989872 C37.6074335,40.3046397 37.4422457,40.3243547 37.2796068,40.3579205 L23.6134753,42.3458794 L18.7901682,39.5646031 C19.1163245,39.07615 19.4137284,38.5553269 19.7548317,38.0815783 C20.6637654,36.8204201 21.6248368,35.6151618 22.6373458,34.4728668 C23.6505592,33.3294163 24.71237,32.2506768 25.8184516,31.2313907 C26.7245065,30.4220242 27.0401603,29.1383948 26.6129297,28.0005873 C26.1856991,26.8627798 25.1035045,26.1049454 23.8891233,26.0931722 L23.8895996,26.056985 Z M90.0267062,26.0571911 C88.832427,26.1057673 87.7863829,26.8731253 87.3805399,27.9983683 C86.9746969,29.1236112 87.2898338,30.3827714 88.1777383,31.1836518 C89.283615,32.2058846 90.3520125,33.291673 91.3703462,34.4363079 C92.3830948,35.5797729 93.3438602,36.784439 94.2528878,38.0456117 C94.5931453,38.5164136 94.8823433,39.0401834 95.2060909,39.5286364 L90.3942109,42.3099128 L76.7166279,40.3213472 C76.5238939,40.2821996 76.327722,40.2625046 76.1310593,40.2625583 C74.5975017,40.3167729 73.3634867,41.5422668 73.2973485,43.0767017 C73.2312104,44.6111366 74.3551929,45.938445 75.8783881,46.1246453 L86.8686912,47.7224311 L82.7573576,58.0442092 C82.3140754,59.0300918 82.4465882,60.1798663 83.1024926,61.0388437 C83.758397,61.8978212 84.8320688,62.3276752 85.8989144,62.158416 C86.9657601,61.9891567 87.853979,61.2480412 88.2123168,60.2281503 L93.3227754,47.3893424 L98.1461142,44.6074883 C98.4055828,45.131258 98.7123442,45.6420711 98.949992,46.1705497 C99.5869376,47.5894412 100.14422,49.0318627 100.62663,50.4813475 C101.109373,51.9308323 101.52368,53.3897349 101.855639,54.8603952 C102.051403,55.9220517 102.812259,56.7911915 103.838057,57.1249489 C104.863856,57.4587064 105.989893,57.203493 106.771961,56.4599877 C107.554029,55.7164824 107.866558,54.6040629 107.586259,53.5615659 C107.211654,51.9008168 106.752811,50.2553643 106.208286,48.6193151 C105.663458,46.9826882 105.031203,45.355479 104.313382,43.7571009 C103.595301,42.1581307 102.795247,40.5821126 101.901691,39.0331778 C101.008321,37.4842286 100.044338,35.9953249 99.0191779,34.5734868 C97.9946962,33.1516631 96.9120979,31.7945793 95.769146,30.5039833 C95.7652971,30.5041731 95.7614486,30.5043705 95.7576006,30.5045755 C94.6157022,29.2204651 93.4246348,27.9934246 92.174527,26.8376096 C91.5969637,26.2896054 90.8221186,25.9993421 90.0269949,26.0331267 L90.0267062,26.0571911 Z M5.34275582,29.7012048 C3.4359833,29.7877107 1.70458573,30.8404402 0.749099873,32.4942534 C0.00715020569,33.7821581 -0.193111637,35.312353 0.192388322,36.7480702 C0.577888281,38.1837875 1.51755703,39.4073651 2.80459061,40.1495161 C5.48128142,41.6976902 8.9050808,40.781698 10.4529893,38.1032883 C11.1949414,36.8153871 11.3952076,35.2851948 11.0097132,33.849478 C10.6242188,32.4137612 9.68455614,31.1901814 8.39752746,30.4480256 C7.47145128,29.9121393 6.41138365,29.6529774 5.34275582,29.7012048 L5.34275582,29.7012048 Z M108.263498,29.7012048 C107.326932,29.722525 106.41068,29.9786989 105.59866,30.4462633 C102.922964,31.9956083 102.007933,35.4220592 103.554488,38.1009338 C105.102397,40.7793609 108.526218,41.6953554 111.202915,40.1471617 C113.878966,38.5978002 114.794044,35.1709055 113.247087,32.4918989 C112.220794,30.7189287 110.309555,29.6478994 108.26295,29.6988648 L108.263498,29.7012048 Z M85.4904584,67.861536 C84.5023923,67.854319 83.5767339,68.3442422 83.0265325,69.1656984 C82.4763312,69.9871546 82.3751684,71.0302858 82.7572566,71.9423143 L86.8685758,82.2640201 L75.8782726,83.8618637 C74.8300024,84.0025086 73.9378917,84.6956393 73.5418184,85.6771857 C73.1457451,86.6587321 73.3067016,87.7775431 73.9633664,88.6073723 C74.6200313,89.4372015 75.6712828,89.8502611 76.7166134,89.6891829 L90.3941965,87.7006173 L95.2060476,90.4826158 C94.8825454,90.9709823 94.5932896,91.4930042 94.2528589,91.9650484 C93.3439035,93.22677 92.3828639,94.4320138 91.3703606,95.5742799 C90.3573667,96.7177015 89.2959397,97.8046454 88.1892548,98.8268782 C87.3694197,99.5270363 86.9980066,100.620012 87.2213182,101.675274 C87.4446297,102.730535 88.2268743,103.578948 89.2599192,103.886315 C90.2929641,104.193683 91.411236,103.910741 92.1742384,103.148943 C93.4240719,101.993677 94.6256312,100.772544 95.7687708,99.4825112 C96.9122855,98.191323 97.9945086,96.8348459 99.0187738,95.4136578 C100.043486,93.9911696 101.007773,92.5028148 101.901286,90.9539378 C102.794612,89.4050608 103.594897,87.8296061 104.312978,86.2294514 C105.030755,84.63103 105.66291,83.0032864 106.207853,81.3677427 C106.747687,79.7358103 107.210947,78.0862555 107.585927,76.4248564 C107.796128,75.5518711 107.596588,74.6306002 107.044067,73.9231049 C106.491546,73.2156096 105.646516,72.7993222 104.749351,72.7926583 C103.353644,72.784376 102.144455,73.7593363 101.855422,75.1260126 C101.523795,76.5955896 101.108045,78.0615556 100.626616,79.516977 C100.144523,80.9628652 99.5852924,82.4006644 98.9499487,83.8159304 C98.7126329,84.3456079 98.4055828,84.8552076 98.1460421,85.3791074 L93.3226888,82.5971088 L88.2122879,69.7583154 C87.7818535,68.6254117 86.7014552,67.8725233 85.4905161,67.861536 L85.4904584,67.861536 Z M28.4258518,67.8616163 C27.2474504,67.9029725 26.2077141,68.6449327 25.7845356,69.7464709 L20.6741029,82.5971088 L15.8507251,85.3791074 C15.5897181,84.8494299 15.2857867,84.336219 15.0468401,83.8042304 C14.4099205,82.3859311 13.8525443,80.9429319 13.3701238,79.4940104 C12.887269,78.0439333 12.48207,76.5831674 12.1526853,75.1148904 C11.8573733,73.713448 10.5968521,72.7283318 9.16681953,72.7813916 C8.28647417,72.8127436 7.46655439,73.2375081 6.93266984,73.9388065 C6.39878529,74.6401049 6.20719105,75.544042 6.41060633,76.4018897 C6.78368459,78.0657444 7.24409519,79.7199214 7.7886184,81.3560428 C8.33344757,82.9925975 8.96582844,84.6199077 9.68352553,86.2181847 C10.4016051,87.8171839 11.2130869,89.3932164 12.1066624,90.9420934 C13.0000156,92.4911148 13.9525838,93.9794696 14.9777163,95.4018133 C16.0017491,96.8225681 17.0947715,98.1802008 18.2392128,99.4708112 C19.3813363,100.754922 20.5836475,101.981977 21.8337495,103.137676 C22.5966213,103.900047 23.7151681,104.183432 24.748563,103.876147 C25.781958,103.568862 26.5644715,102.720187 26.78771,101.66459 C27.0109484,100.608994 26.63911,99.5157665 25.8187388,98.815756 C24.7129819,97.7935232 23.6446089,96.7077349 22.6261497,95.5631577 L22.6378394,95.5631577 C21.6257244,94.4214694 20.6648536,93.2155033 19.755331,91.9537818 C19.4141816,91.4830376 19.1170418,90.9604378 18.7906733,90.4707714 L23.6140107,87.6894951 L37.2801061,89.6780607 C38.3226254,89.8350389 39.3693823,89.4217496 40.0240508,88.5946735 C40.6787193,87.7675973 40.8412304,86.6531567 40.4500537,85.6733042 C40.058877,84.6934516 39.1738055,83.9979621 38.1299476,83.8501637 L27.1281582,82.2523201 L31.2509607,71.9304698 C31.6349753,71.0044077 31.5214757,69.9463752 30.9497933,69.123015 C30.3781109,68.2996547 29.4269204,67.8242773 28.4258402,67.8616163 L28.4258518,67.8616163 Z M5.46904381,89.0913277 C4.53248072,89.1126442 3.61622962,89.368813 2.80420961,89.8363717 C1.51714686,90.578494 0.577441675,91.8020589 0.191908841,93.2377786 C-0.193623993,94.6734983 0.00661171493,96.203709 0.748547137,97.4916345 C2.29646583,100.17004 5.72027046,101.086019 8.39695596,99.5378334 C9.68402092,98.7957134 10.6237289,97.5721494 11.0092642,96.1364295 C11.3947995,94.7007096 11.1945658,93.1704978 10.4526314,91.8825707 C9.42632931,90.1096333 7.51510825,89.0386294 5.46852715,89.0895943 L5.46904381,89.0913277 Z M108.137177,89.0913277 C106.234482,89.1818035 104.508254,90.234228 103.555079,91.8848818 C102.00851,94.5637521 102.923528,97.9902115 105.599222,99.5395668 C108.275764,101.087872 111.699547,100.172161 113.247664,97.4939456 C114.794621,94.814939 113.879543,91.3880444 111.203493,89.8386828 C110.274081,89.3006672 109.209716,89.0414447 108.137235,89.0919055 L108.137177,89.0913277 Z M66.1052594,89.6091607 C65.2245143,89.6460902 64.4067929,90.0765885 63.8773856,90.782049 L56.9984204,99.5060557 L50.119422,90.782049 C49.5727433,90.0700125 48.7311616,89.6467655 47.8340737,89.6327052 C46.6930713,89.6152423 45.6450218,90.2601372 45.145524,91.2870468 C44.6460261,92.3139564 44.785303,93.5373925 45.5028094,94.4255138 L54.0584779,105.276319 L54.0584895,110.851294 C53.4749716,110.792072 52.8794639,110.792072 52.3014547,110.757405 C50.7557009,110.598517 49.2256574,110.374917 47.7307698,110.067684 C46.2349008,109.761606 44.7678014,109.378539 43.3323423,108.929462 C43.0541763,108.837791 42.7638875,108.788229 42.4710882,108.782418 C40.9923924,108.746077 39.7169204,109.814861 39.4926702,111.278189 C39.2684199,112.741517 40.165212,114.143779 41.586814,114.552681 C43.2129455,115.058814 44.8714287,115.48247 46.5594349,115.828558 C48.2478106,116.175803 49.9622991,116.444036 51.7043349,116.621269 C53.447153,116.79778 55.2115797,116.886038 56.9985142,116.886038 C58.7855252,116.886613 60.5499562,116.797925 62.292692,116.621269 C64.0347062,116.444614 65.7608599,116.173925 67.4490725,115.828558 C69.1306754,115.481314 70.7845837,115.058814 72.4102635,114.552681 C73.9610718,114.070221 74.8274827,112.420827 74.3454465,110.868657 C73.8634103,109.316486 72.2154642,108.449313 70.6646558,108.931773 C69.2279165,109.379117 67.7661238,109.758139 66.2660003,110.068839 C64.7708124,110.374917 63.2528513,110.604439 61.7067771,110.758561 C61.1263751,110.817783 60.5261438,110.817783 59.9381507,110.85245 L59.9381507,105.277475 L68.4938307,94.4272472 C69.2341545,93.5316964 69.3784469,92.2839052 68.8620773,91.2427771 C68.3457076,90.2016491 67.2654352,89.5622745 66.1051295,89.6110385 L66.1052594,89.6091607 Z M56.9983497,118.793132 C53.9109783,118.796702 51.4090728,121.300848 51.4055593,124.390932 C51.4028621,127.485415 53.906584,129.996423 56.9983497,129.999998 C58.485074,130.00132 59.9112875,129.410795 60.9625697,128.358607 C62.0138519,127.306419 62.6038828,125.878962 62.6025873,124.390932 C62.5990679,121.296375 60.0901906,118.79038 56.9983497,118.793132 L56.9983497,118.793132 Z"></path>
                    </g>
                </g>
            </g>
        </g>
    </g>
</svg>