<svg width="90" height="90" viewBox="0 0 90 90" xmlns="http://www.w3.org/2000/svg">
    <g fill-rule="nonzero" fill="none">
        <path d="M45 0C20.147 0 0 20.147 0 45s20.147 45 45 45 45-20.147 45-45C89.97 20.16 69.84.03 45 0z" fill="#4FB075"/>
        <path d="M31.423 22.86C30.498 23.35 30 24.26 30 25.312v39.385c0 1.051.57 1.962 1.423 2.453.427.28.926.35 1.424.35.498 0 .996-.14 1.494-.42l33.307-19.693c.854-.49 1.352-1.401 1.352-2.382 0-.982-.498-1.893-1.352-2.383L34.27 22.93c-.925-.561-1.993-.561-2.847-.07zm34.73 22.145L32.776 64.697V25.312l33.377 19.693z" stroke="#FBFEF9" stroke-width="1.5" fill="#FBFEF9"/>
    </g>
</svg>
