<?xml version="1.0" encoding="UTF-8"?>
<svg width="123px" height="123px" viewBox="0 0 123 123" version="1.1" xmlns="http://www.w3.org/2000/svg" xmlns:xlink="http://www.w3.org/1999/xlink">
    <title>Icon_phone</title>
    <g id="Page-1" stroke="none" stroke-width="1" fill="none" fill-rule="evenodd">
        <g id="0.3-Contact" transform="translate(-498.000000, -1256.000000)">
            <g id="contact-info" transform="translate(83.000000, 1256.000000)">
                <g id="Group-3" transform="translate(324.000000, 0.000000)">
                    <g id="Group" transform="translate(91.000000, 0.000000)">
                        <circle id="Oval" fill="#EAE0D5" cx="61.5" cy="61.5" r="61.5"></circle>
                        <path d="M34.701467,89.4071858 C37.8528643,91.8861376 41.7744071,93.1541794 45.7662713,92.9850211 C47.5388803,92.9745996 49.3073749,92.8115087 51.052506,92.4975234 C71.5109806,88.9381997 90.43086,58.608087 92.6054484,47.2710429 C93.5862768,42.1537526 92.7302614,37.846398 90.1283513,34.8158807 C87.1745877,31.3746963 82.2076999,29.7306141 75.7593452,30.0359397 C75.1728301,30.0648372 74.6619678,30.4491216 74.4668814,31.0081656 C74.4245695,31.1298761 70.1776056,43.2569303 67.2069173,47.7528997 C66.8142453,48.3476633 66.9065003,49.1420281 67.4248021,49.6290043 L73.9796442,55.782568 C71.7126627,59.4236782 63.4478693,71.943675 55.656291,74.305878 L49.3263953,68.8754347 C48.8950873,68.505659 48.2896872,68.4238843 47.7772294,68.6661802 C43.8475763,70.5301867 33.0373657,75.4553202 30.2401563,75.8588596 C29.518057,75.9632122 28.9863285,76.5945601 29.0002678,77.3307106 C29.2221351,81.9643126 31.2757638,86.3145917 34.701467,89.4071858 Z M76.8572896,32.9169499 C78.0202412,32.8860784 79.1838249,32.9453586 80.3377863,33.0942682 C79.065121,37.8106865 76.0924976,46.7130989 72.4602555,50.3744699 L70.2615652,48.3100712 C72.8224695,43.3450609 75.0267168,38.200782 76.8572896,32.9169499 L76.8572896,32.9169499 Z M55.6097911,77.3299381 C66.109796,74.9542084 76.6323576,57.0280376 77.0751745,56.2657075 C77.4173632,55.6763148 77.3083433,54.926146 76.8128693,54.460778 L74.5720692,52.3570092 C79.0796631,47.6986912 82.1419358,37.5035098 83.159242,33.7241744 C84.999523,34.2572119 86.6568076,35.2960409 87.9460659,36.7246795 C89.9740066,39.088311 90.5881652,42.4497787 89.7695229,46.7172823 C87.7049167,57.4835262 69.8377815,86.2706128 50.5618174,89.6249673 C44.5005665,90.6761812 39.793861,89.854847 36.5608675,87.1766341 C35.3426774,86.149462 34.3417803,84.8853067 33.6178047,83.4594804 C41.6444959,82.3870874 49.5706204,77.1198965 52.2382802,75.1989558 L54.3589317,77.018199 C54.7032942,77.3164923 55.1674525,77.4321698 55.6097911,77.3299381 Z M48.1622826,71.7023385 L49.9578686,73.24277 C46.9027441,75.3559695 39.5052878,79.9724833 32.4956573,80.6404332 C32.2842635,79.915704 32.1208457,79.1775893 32.006485,78.4309731 C37.511548,76.4931435 42.9051974,74.2467737 48.1622826,71.7023385 L48.1622826,71.7023385 Z" id="Shape" fill="#00524C" fill-rule="nonzero"></path>
                        <path d="M59.9103453,54.0836651 C60.4691892,54.6579473 61.3834524,54.6662221 61.9524092,54.1021475 C62.5213661,53.5380729 62.5295642,52.6152524 61.9707204,52.0409702 C59.0371267,49.0338418 54.2446586,48.9938376 51.2621936,51.9515829 C48.2797285,54.9093281 48.2348287,59.7466062 51.1618672,62.7602353 C51.7212317,63.3315298 52.6330745,63.3383733 53.2007937,62.7755378 C53.7685129,62.2127022 53.7781051,61.2923502 53.2222423,60.7175842 C51.4165463,58.8519234 51.446749,55.8633106 53.2897739,54.0352171 C55.1327988,52.2071236 58.0937741,52.2287914 59.9103453,54.0836651 L59.9103453,54.0836651 Z" id="Path" fill="#00524C" fill-rule="nonzero"></path>
                        <path d="M63.3076334,47.4823818 C61.1385473,45.2420162 58.171667,43.9706059 55.068256,43.9515253 C51.9594275,43.8842365 48.9593907,45.1073183 46.7689488,47.3350612 C42.1617936,51.9042298 42.0964488,59.3780026 46.6229943,64.0285311 C46.9844926,64.4000266 47.5148834,64.5486404 48.0143737,64.4183911 C48.513864,64.2881419 48.9065693,63.8988175 49.0445612,63.3970728 C49.1825532,62.8953281 49.0448676,62.35739 48.6833693,61.9858945 C45.2748929,58.483754 45.323819,52.8559338 48.7926583,49.4147065 C50.4474965,47.7449594 52.7033409,46.8253629 55.0428689,46.8668039 C57.3797233,46.881005 59.6138358,47.8382165 61.2472583,49.5250913 C61.8066229,50.0963858 62.7184656,50.1032293 63.2861848,49.5403937 C63.853904,48.9775582 63.8634962,48.0572062 63.3076334,47.4824401 L63.3076334,47.4823818 Z" id="Path" fill="#00524C" fill-rule="nonzero"></path>
                    </g>
                </g>
            </g>
        </g>
    </g>
</svg>