<svg width="184" height="184" viewBox="0 0 184 184" xmlns="http://www.w3.org/2000/svg" xmlns:xlink="http://www.w3.org/1999/xlink">
    <defs>
        <path id="ngzpel4y4a" d="M0 0h184v184H0z"/>
    </defs>
    <g fill="none" fill-rule="evenodd">
        <circle fill="#231F20" cx="92" cy="92" r="92"/>
        <mask id="f3pcpsgcsb" fill="#fff">
            <use xlink:href="#ngzpel4y4a"/>
        </mask>
        <path d="M91.996-.001C41.186-.001 0 41.185 0 91.995 0 142.813 41.185 184 91.996 184 142.806 184 184 142.813 184 91.995 184 41.185 142.806 0 91.996 0zm38.286 136.058-12.443-25.03H83.584a4.348 4.348 0 0 0-4.343 4.342v2.94a5.791 5.791 0 0 1-5.8 5.792H40.906l-6.207 12.47h-7.07l10.274-20.614h36.998a4.34 4.34 0 0 0 4.34-4.338v-2.94a5.8 5.8 0 0 1 5.8-5.8h28.726l-3.052-6.107h-27.13a4.345 4.345 0 0 0-4.344 4.329v2.949a5.8 5.8 0 0 1-5.8 5.8H40.955l4.064-8.15h29.882a4.344 4.344 0 0 0 4.34-4.328v-2.945a5.8 5.8 0 0 1 5.8-5.8h21.598l-3.052-6.111H83.584a4.344 4.344 0 0 0-4.343 4.325v2.949a5.805 5.805 0 0 1-5.8 5.807H48.06l4.072-8.157H74.9a4.344 4.344 0 0 0 4.34-4.329v-2.944c0-3.204 2.587-5.8 5.791-5.8h14.475L79.043 33.435h23.075c3.859 0 7.388 2.181 9.115 5.631l48.43 96.991h-29.381z" fill="#F7B945" mask="url(#f3pcpsgcsb)"/>
    </g>
</svg>
