<?xml version="1.0" encoding="UTF-8"?>
<svg width="184px" height="184px" viewBox="0 0 184 184" version="1.1" xmlns="http://www.w3.org/2000/svg" xmlns:xlink="http://www.w3.org/1999/xlink">
    <title>Icon_point</title>
    <g id="Page-1" stroke="none" stroke-width="1" fill="none" fill-rule="evenodd">
        <g id="0.2-Search-Results" transform="translate(-172.000000, -343.000000)">
            <g id="Group" transform="translate(172.000000, 343.000000)">
                <circle id="Oval" fill="#00524C" cx="92" cy="92" r="92"></circle>
                <g id="Group-3" transform="translate(91.500000, 91.500000) rotate(90.000000) translate(-91.500000, -91.500000) translate(54.000000, 38.000000)" fill="#FBFEF9">
                    <path d="M65.6226842,37.7647059 C64.4384114,37.7647059 63.4259987,37.9802794 62.4979538,38.2745294 L62.4979538,38.2556471 C62.3635904,38.2981324 62.2542249,38.3170147 62.1198615,38.3547794 C61.2277509,35.0047353 58.5607936,31.4705882 53.1237627,31.4705882 C51.7691921,31.4705882 50.6099172,31.7034706 49.5896927,32.0858382 C49.1444186,30.4446471 48.2960543,28.7609706 46.874302,27.4691029 L46.874302,27.4329118 C45.3978669,26.0985588 43.3839782,25.1764706 40.6248413,25.1764706 C39.4280696,25.1764706 38.4281559,25.4156471 37.5001109,25.7240588 L37.5001109,9.44117647 C37.5001109,7.16742647 36.572066,4.24695588 34.3753806,2.25644118 C32.8989455,0.922088235 30.8850568,0 28.1259199,0 C21.2421389,0 18.7517288,5.64897059 18.7517288,9.44117647 L18.7517288,44.2492206 L17.3487248,42.0431324 C15.3098383,38.8535882 10.1712192,35.4657794 4.39827986,39.2029118 C1.56571179,41.0282059 0.553299155,43.3334265 0.198642259,44.9384265 C-0.618474731,48.6818529 1.33448174,51.8902794 1.56571179,52.2411765 L18.7517288,79.5749559 L18.7517288,107 L25.0011895,107 L25.0011895,77.7795588 L6.82619535,48.8407794 C6.69183195,48.6377941 6.07001061,47.3600882 6.30124065,46.2837941 C6.3621729,46.0446176 6.52153414,45.3066324 7.76673919,44.5009853 C9.88999347,43.1430294 11.2945598,44.2728235 12.0882413,45.4419559 L18.7532911,55.9090735 L23.34352,63.0387353 L25.0043142,63.0387353 L25.0043142,9.47736765 C25.0402486,8.02657353 25.615199,6.29411765 28.1290446,6.29411765 C30.6428902,6.29411765 31.2178406,8.02814706 31.2537749,9.44117647 L31.2537749,56.6470588 L37.5032357,56.6470588 L37.5032357,34.6538382 C37.5391701,33.2030441 38.1141205,31.4705882 40.627966,31.4705882 C43.1418116,31.4705882 43.716762,33.2046176 43.7526964,34.6176471 L43.7526964,34.6538382 L43.7526964,56.6470588 L50.0021571,56.6470588 L50.0021571,40.9479559 C50.0380915,39.4971618 50.6130419,37.7647059 53.1268875,37.7647059 C55.640733,37.7647059 56.2156834,39.4987353 56.2516178,40.9117647 L56.2516178,56.6470588 L62.5010786,56.6470588 L62.5010786,47.7534706 C62.537013,46.3026765 63.1119633,44.0588235 65.6258089,44.0588235 C68.1396545,44.0588235 68.7146049,45.7928529 68.7505393,47.2058824 L68.7505393,75.5294118 C68.7505393,85.9666324 58.0827098,91.5479412 57.9733443,91.6030147 L56.2516178,92.4826176 L56.2516178,107 L62.5010786,107 L62.5010786,96.2181765 C66.2976259,93.7965147 75,86.9988676 75,75.5294118 L75,47.2058824 C74.9968753,43.4136765 72.4939663,37.7647059 65.6226842,37.7647059" id="Fill-1"></path>
                </g>
            </g>
        </g>
    </g>
</svg>