<?xml version="1.0" encoding="UTF-8"?>
<svg width="60px" height="60px" viewBox="0 0 60 60" version="1.1" xmlns="http://www.w3.org/2000/svg" xmlns:xlink="http://www.w3.org/1999/xlink">
    <title>icon_pause</title>
    <g id="icon_pause" stroke="none" stroke-width="1" fill="none" fill-rule="evenodd">
        <path d="M30,0 C13.4314575,0 0,13.4314575 0,30 C0,46.5685425 13.4314575,60 30,60 C46.5685425,60 60,46.5685425 60,30 C59.9801633,13.4396811 46.5603189,0.019836698 30,0 Z M26,40 C26,41.1045695 25.1045695,42 24,42 C22.8954305,42 22,41.1045695 22,40 L22,20 C22,18.8954305 22.8954305,18 24,18 C25.1045695,18 26,18.8954305 26,20 L26,40 Z M38,40 C38,41.1045695 37.1045695,42 36,42 C34.8954305,42 34,41.1045695 34,40 L34,20 C34,18.8954305 34.8954305,18 36,18 C37.1045695,18 38,18.8954305 38,20 L38,40 Z" id="Shape" fill="#F7B945" fill-rule="nonzero"></path>
    </g>
</svg>