<svg width="184" height="184" viewBox="0 0 184 184" xmlns="http://www.w3.org/2000/svg">
    <g fill="none" fill-rule="evenodd">
        <path d="M92 0c50.811 0 92 41.19 92 92 0 50.811-41.189 92-92 92-50.81 0-92-41.189-92-92C0 41.19 41.19 0 92 0" fill="#00524C"/>
        <g fill="#FBFEF9" fill-rule="nonzero" stroke="#FBFEF9">
            <path d="M48.5 134.98h73.337a1.5 1.5 0 0 0 1.5-1.5v-4.758l7.853 9.43c1.557 1.87 3.772 2.848 5.948 2.848 1.577 0 3.133-.513 4.403-1.572 3.022-2.52 3.297-7.194.612-10.418l-5.07-6.087v-.001l-3.699-4.442a1.501 1.501 0 0 0-1.016-.534c-.39-.026-.789.087-1.095.342l-3.1 2.586-2.42-2.905a20.272 20.272 0 0 0 6.16-12.83 20.304 20.304 0 0 0-4.649-14.931 20.321 20.321 0 0 0-3.928-3.597V43.5A1.5 1.5 0 0 0 121.837 42H48.5A1.5 1.5 0 0 0 47 43.5v89.98a1.5 1.5 0 0 0 1.5 1.5zm91.121 2.144c-1.752 1.461-4.5 1.062-6.129-.892l-4.11-4.935 6.358-5.302 4.11 4.936c1.627 1.953 1.524 4.73-.229 6.193zm-7.58-15.571 1.78 2.137-6.358 5.302-1.78-2.138 3.257-2.716 3.1-2.585zm-8.705 3.353v-4.919c.041-.028.08-.062.12-.09l2.414 2.897-2.534 2.112zm1.625-32.778a17.324 17.324 0 0 1 3.966 12.74 17.324 17.324 0 0 1-6.198 11.813 17.28 17.28 0 0 1-12.73 3.968 17.302 17.302 0 0 1-11.806-6.2c-6.15-7.385-5.148-18.4 2.232-24.554 7.379-6.154 18.385-5.152 24.536 2.233zM49.998 45h70.34v39.857c-6.971-3.304-15.528-2.523-21.833 2.734a20.294 20.294 0 0 0-4.848 5.937H60.255a1.5 1.5 0 0 0 0 3h32.082a20.588 20.588 0 0 0-1.071 8.768H60.255a1.5 1.5 0 0 0 0 3h31.552a20.277 20.277 0 0 0 4.083 8.073c.207.248.434.472.65.708H60.25a1.5 1.5 0 0 0 0 3h39.341c.101 0 .19-.038.286-.057a20.27 20.27 0 0 0 9.851 3.617 20.203 20.203 0 0 0 10.61-1.892v10.236h-70.34V45z"/>
            <path d="M63.725 85.859c.006 0 .012-.004.018-.004h14.864c.006 0 .012.004.018.004.006 0 .012-.004.018-.004h6.26a1.5 1.5 0 0 0 1.5-1.5v-7.456c0-5.461-3.839-9.944-8.945-10.482l-.013-.002c-.034-.003-.066-.01-.1-.014-.077-.007-.146.02-.222.023-.102.006-.203.006-.302.032-.103.027-.191.077-.284.124-.078.04-.156.071-.227.124-.092.07-.161.157-.235.246-.043.05-.1.083-.136.141a5.606 5.606 0 0 1-4.767 2.609 5.606 5.606 0 0 1-4.767-2.609c-.033-.05-.083-.08-.12-.125a1.451 1.451 0 0 0-.254-.265c-.065-.049-.137-.077-.207-.114-.098-.05-.192-.102-.3-.131-.1-.026-.2-.026-.303-.032-.076-.004-.144-.03-.222-.023-.034.003-.066.01-.1.014l-.012.002c-5.107.538-8.946 5.02-8.946 10.482v7.456a1.5 1.5 0 0 0 1.5 1.5h6.266c.006 0 .012.004.018.004zm-4.786-8.96c0-3.583 2.386-6.64 5.549-7.353a8.593 8.593 0 0 0 6.684 3.154 8.593 8.593 0 0 0 6.684-3.154c3.163.713 5.549 3.77 5.549 7.353v5.956h-3.28v-5.787a1.5 1.5 0 1 0-3 0v5.787H65.225v-5.787a1.5 1.5 0 1 0-2.998 0v5.787h-3.287v-5.956zM71.172 65.225c4.591 0 8.326-3.737 8.326-8.331 0-4.594-3.735-8.331-8.326-8.331-4.59 0-8.326 3.737-8.326 8.33 0 4.595 3.735 8.332 8.326 8.332zm0-13.662a5.335 5.335 0 0 1 5.328 5.33c0 2.94-2.39 5.332-5.328 5.332a5.336 5.336 0 0 1-5.328-5.331c0-2.94 2.39-5.331 5.328-5.331zM106.524 91.228a1.497 1.497 0 0 0 1.856 1.023 11.49 11.49 0 0 1 12.017 3.683 1.495 1.495 0 0 0 2.11.192 1.5 1.5 0 0 0 .192-2.112 14.474 14.474 0 0 0-15.152-4.644 1.5 1.5 0 0 0-1.023 1.858z"/>
        </g>
    </g>
</svg>
