<svg width="184" height="184" viewBox="0 0 184 184" xmlns="http://www.w3.org/2000/svg">
    <g fill="none" fill-rule="evenodd">
        <circle fill="#F7B945" cx="92" cy="92" r="92"/>
        <path d="M120.24 42a7.917 7.917 0 0 1 3.119 15.196c4.179 10.653 8.761 23.821 8.761 30.344v1.98h9.9c.82.01 1.55.522 1.84 1.29.088.22.136.453.14.69v47.52a1.98 1.98 0 0 1-1.98 1.98H54.9c-5.465-.006-9.894-4.435-9.9-9.9V87.54c0-9.804 10.686-35.218 11.933-38.15A7.906 7.906 0 0 1 64.8 42zm-61.38 85.96-7.71 7.71a5.882 5.882 0 0 0 3.75 1.37h7.92a5.882 5.882 0 0 0 3.75-1.37l-7.71-7.71zm62.4-34.48h-2.203l-45.375 43.56h2.202l45.375-43.56zm7.92 0h-2.203l-45.375 43.56h2.202l45.375-43.56zm7.92 0h-2.203l-45.375 43.56h2.202l45.375-43.56zm2.94 2.665L97.442 137.04h42.598V96.145zm-3.96 30.995a1.98 1.98 0 0 1 1.98 1.98v3.96a1.98 1.98 0 1 1-3.96 0v-3.96a1.98 1.98 0 0 1 1.98-1.98zm-11.3.58a1.98 1.98 0 0 1 2.8 2.8l-1.98 1.98a1.98 1.98 0 1 1-2.8-2.8zm-12.87-.99a1.98 1.98 0 0 1 2.8 2.8l-2.97 2.97a1.98 1.98 0 1 1-2.8-2.8zM64.185 57.778c3.777 9.678 8.535 23.175 8.535 29.762v43.56a9.8 9.8 0 0 1-.154 1.522l12.917-12.4a30.363 30.363 0 0 1-4.843-16.842c0-14.194 8.882-25.74 19.8-25.74 6.877 0 13.243 4.707 16.814 12.196.3-.196.648-.305 1.006-.316h9.9v-1.98c0-4.725-3.206-15.515-8.807-29.7H64.8c-.21 0-.408-.046-.615-.062zm-3.345 2.328v64.234l7.814 7.814c.066-.348.102-.7.106-1.054V87.54c0-5.872-4.58-18.793-7.92-27.434zm-3.96.004c-3.424 8.852-7.92 21.587-7.92 27.43v43.56c.004.354.04.706.106 1.054l7.814-7.814zm64.93 56.72a1.98 1.98 0 0 1 2.8 2.8l-4.95 4.95a1.98 1.98 0 0 1-2.8-2.8zm8.286-1.574.162.003a1.98 1.98 0 0 1 1.653 1.095l1.98 3.96a1.98 1.98 0 0 1-3.542 1.772l-1.98-3.96a1.98 1.98 0 0 1 1.89-2.867zM101.43 104.26c-4.067 0-10.89 1.043-10.89 8.03 0 .924.12 1.844.352 2.739l11.182-10.735c-.219-.006-.42-.034-.644-.034zm-.99-22.66c-8.734 0-15.84 9.77-15.84 21.78a27.874 27.874 0 0 0 2.102 10.794 14.802 14.802 0 0 1-.122-1.884 10.8 10.8 0 0 1 6.83-10.518 14.258 14.258 0 0 1-5.385-9.253 1.98 1.98 0 0 1 1.965-2.23 12.715 12.715 0 0 1 10.188 5.194 10.713 10.713 0 0 1 6.236-6.481 1.98 1.98 0 0 1 1.471 3.676 7.829 7.829 0 0 0-4.597 7.723c.84.06 1.677.168 2.506.323l8.396-8.06c-2.809-6.76-8.1-11.064-13.75-11.064zm35.522 21.78a1.98 1.98 0 0 1 1.89 2.866l-1.98 3.96a1.98 1.98 0 0 1-3.543-1.772l1.98-3.96a1.98 1.98 0 0 1 1.653-1.095zm-43.208-8.688a8.916 8.916 0 0 0 5.58 5.175 10.352 10.352 0 0 0-5.58-5.175zM120.24 45.96H71.618a7.667 7.667 0 0 1 0 7.92h48.622a3.964 3.964 0 0 0 3.96-3.96 3.964 3.964 0 0 0-3.96-3.96zm-55.44 0a3.964 3.964 0 0 0-3.96 3.96c.004.55.12 1.094.343 1.597A3.96 3.96 0 1 0 64.8 45.96z" fill="#231F20" fill-rule="nonzero"/>
    </g>
</svg>
