<?xml version="1.0" encoding="UTF-8"?>
<svg width="184px" height="184px" viewBox="0 0 184 184" version="1.1" xmlns="http://www.w3.org/2000/svg" xmlns:xlink="http://www.w3.org/1999/xlink">
    <title>Icon_question</title>
    <g id="Page-1" stroke="none" stroke-width="1" fill="none" fill-rule="evenodd">
        <g id="0.3-Contact" transform="translate(-187.000000, -1646.000000)">
            <g id="cta-box" transform="translate(-1.000000, 1646.000000)">
                <g id="Group" transform="translate(188.000000, 0.000000)">
                    <path d="M92,0 C142.811,0 184,41.19 184,92 C184,142.811 142.811,184 92,184 C41.19,184 0,142.811 0,92 C0,41.19 41.19,0 92,0" id="Fill-1" fill="#00524C"></path>
                    <g id="noun-question-2496543" transform="translate(28.000000, 24.000000)" fill="#FBFEF9" fill-rule="nonzero">
                        <rect id="Rectangle" x="59.3787554" y="87.7128409" width="10.1040773" height="8.71079247"></rect>
                        <path d="M64.5,41.3935476 C54.6727468,41.3935476 46.6448498,49.4130073 46.6448498,59.2299321 L56.8873391,59.2299321 C56.8873391,54.9436692 60.3476395,51.6252721 64.5,51.6252721 C68.7907725,51.6252721 72.1126609,55.0819357 72.1126609,59.2299321 C72.1126609,63.5161951 68.6523605,66.8345922 64.5,66.8345922 L59.3787554,66.8345922 L59.3787554,81.2143131 L69.6212446,81.2143131 L69.6212446,76.2367174 C76.9570815,74.0244527 82.3551502,67.2493919 82.3551502,59.0916656 C82.3551502,49.4130073 74.3272532,41.3935476 64.5,41.3935476 Z" id="Path"></path>
                        <path d="M126.093348,67.6641915 C124.570815,67.6641915 123.186695,68.9085904 123.186695,70.567789 C123.186695,102.922161 96.888412,129.331072 64.361588,129.331072 C31.8347639,129.331072 5.6748927,102.922161 5.6748927,70.567789 C5.6748927,39.5960824 29.8969957,14.1550378 60.3476395,12.0810396 L57.7178112,14.0167712 C56.472103,14.9846371 56.195279,16.7821022 57.1641631,18.0265011 C57.7178112,18.7178338 58.5482833,19.1326335 59.3787554,19.1326335 C59.9324034,19.1326335 60.6244635,18.9943669 61.1781116,18.5795673 L70.5901288,11.3897068 C71.2821888,10.8366406 71.6974249,10.0070414 71.6974249,9.03917552 C71.6974249,8.07130969 71.1437768,7.24171041 70.4517167,6.82691077 L61.0396996,0.466649597 C59.7939914,-0.362949686 57.9946352,-0.086416592 57.0257511,1.29624888 C56.333691,2.40238126 56.610515,4.19984637 57.9946352,5.02944565 L59.9324034,6.27384458 C26.4366953,8.76264243 0,36.5542184 0,70.567789 C0,106.102292 28.9281116,135 64.5,135 C100.071888,135 129,106.102292 129,70.567789 C129,69.046857 127.61588,67.6641915 126.093348,67.6641915 Z" id="Path"></path>
                        <ellipse id="Oval" cx="124.017167" cy="55.6350019" rx="3.46030043" ry="3.45666368"></ellipse>
                        <ellipse id="Oval" cx="119.311159" cy="42.776213" rx="3.46030043" ry="3.45666368"></ellipse>
                        <ellipse id="Oval" cx="111.006438" cy="30.6087569" rx="3.46030043" ry="3.45666368"></ellipse>
                        <ellipse id="Oval" cx="99.5182403" cy="20.2387658" rx="3.46030043" ry="3.45666368"></ellipse>
                        <ellipse id="Oval" cx="85.6770386" cy="12.9106388" rx="3.46030043" ry="3.45666368"></ellipse>
                    </g>
                </g>
            </g>
        </g>
    </g>
</svg>