<?xml version="1.0" encoding="UTF-8"?>
<svg width="130px" height="131px" viewBox="0 0 130 131" version="1.1" xmlns="http://www.w3.org/2000/svg" xmlns:xlink="http://www.w3.org/1999/xlink">
    <title>icon-school</title>
    <g id="Page-1" stroke="none" stroke-width="1" fill="none" fill-rule="evenodd">
        <g id="1.2-Impact" transform="translate(-849.000000, -1714.000000)" fill="#4FB075" fill-rule="nonzero">
            <g id="reach" transform="translate(79.000000, 1405.000000)">
                <g id="schools" transform="translate(721.000000, 309.354266)">
                    <g id="Shape" transform="translate(49.000000, 0.000000)">
                        <path d="M64.9999606,60.4224758 C59.4381471,60.4224758 54.9294064,64.9311649 54.9294064,70.4929147 C54.9294064,76.0546646 59.4381471,80.5633536 64.9999606,80.5633536 C70.5617741,80.5633536 75.0705148,76.0546646 75.0705148,70.4929147 C75.0647823,64.9335411 70.5593979,60.4282082 64.9999606,60.4224758 Z M64.9999606,75.0704586 C62.471824,75.0704586 60.4223643,73.0209436 60.4223643,70.492836 C60.4223643,67.9647283 62.471824,65.9152921 64.9999606,65.9152921 C67.5280972,65.9152921 69.5775569,67.9647283 69.5775569,70.492836 C69.5752981,73.0200202 67.5271737,75.0681564 64.9999606,75.0704586 L64.9999606,75.0704586 Z"></path>
                        <path d="M129.398113,77.9313447 L114.750041,59.6214845 C114.229074,58.970194 113.440158,58.5912078 112.606134,58.5915765 L89.7185471,58.5915765 L89.7185471,49.7889045 C89.7185633,48.857794 89.2466963,47.9901192 88.4651051,47.48406 L67.746479,34.0697292 L67.746479,20.1408778 L86.9720287,20.1408778 C88.0828696,20.1409404 89.0843524,19.4718071 89.5094353,18.4455285 C89.9345181,17.4192498 89.6994765,16.2379619 88.9139223,15.452559 L83.5317406,10.0704389 L88.9139223,4.68831884 C89.6995169,3.90292989 89.934584,2.72162093 89.509494,1.69532503 C89.084404,0.669029121 88.0828882,0 86.9720287,0 L64.9999606,0 C63.4832689,0 62.2538337,1.22977322 62.2534422,2.74644752 L62.2534422,34.0696898 L41.5348161,47.4840206 C40.7532249,47.9900798 40.2813579,48.8577546 40.2813741,49.7888651 L40.2813741,58.5915371 L17.3937868,58.5915371 C16.5597633,58.5911684 15.770847,58.9701546 15.2498802,59.6214451 L0.601808522,77.9313447 C-0.057581179,78.7557811 -0.186203895,79.8851369 0.270913262,80.8367297 C0.728030419,81.7883224 1.69001377,82.3937952 2.74571509,82.3943712 L7.32331136,82.3943712 L7.32331136,127.253552 C7.32372453,128.770218 8.55314705,130 10.0698297,130 L119.93017,130 C121.446853,130 122.676275,128.770218 122.676689,127.253552 L122.676689,82.3943712 L127.254285,82.3943712 C128.309986,82.3937952 129.27197,81.7883224 129.729087,80.8367297 C130.186204,79.8851369 130.057581,78.7557811 129.398191,77.9313447 L129.398113,77.9313447 Z M111.28651,64.0844715 L121.539459,76.9013974 L89.7185471,76.9013974 L89.7185471,64.0844715 L111.28651,64.0844715 Z M77.7061387,12.0123102 L80.3416051,14.6477464 L67.746479,14.6477464 L67.746479,5.49265869 L80.3418021,5.49265869 L77.7063357,8.12809486 C77.1909666,8.64301066 76.9013812,9.34164436 76.9013442,10.0701617 C76.9013073,10.7986791 77.1908218,11.4973422 77.7061387,12.0123102 L77.7061387,12.0123102 Z M18.7134109,64.0845109 L40.2813741,64.0845109 L40.2813741,76.9014367 L8.4604619,76.9014367 L18.7134109,64.0845109 Z M12.8161117,82.3943712 L40.2812166,82.3943712 L40.2812166,124.507066 L12.8161117,124.507066 L12.8161117,82.3943712 Z M69.5775569,124.507066 L60.4223643,124.507066 L60.4223643,101.61974 C60.4223643,99.0916326 62.4718241,97.0421966 64.9999606,97.0421966 C67.5280971,97.0421966 69.5775569,99.0916326 69.5775569,101.61974 L69.5775569,124.507066 Z M75.0705936,124.507066 L75.0705936,101.61974 C75.0705934,96.0579905 70.5618528,91.5493016 65.0000394,91.5493016 C59.438226,91.5493016 54.9294854,96.0579905 54.9294852,101.61974 L54.9294852,124.507066 L45.7742927,124.507066 L45.7742927,51.2821214 L64.9999606,38.8351415 L84.2255497,51.2819244 L84.2255497,124.507066 L75.0705936,124.507066 Z M117.183731,124.507066 L89.7185471,124.507066 L89.7185471,82.3943712 L117.183731,82.3943712 L117.183731,124.507066 Z"></path>
                    </g>
                </g>
            </g>
        </g>
    </g>
</svg>