<svg width="66" height="66" viewBox="0 0 66 66" xmlns="http://www.w3.org/2000/svg">
    <g fill="none" fill-rule="evenodd">
        <circle fill="#4FB075" cx="33" cy="33" r="33"/>
        <g fill="#FBFEF9" fill-rule="nonzero">
            <path d="M33.04 23.805c3.716 0 6.8 3.004 6.8 6.624 0 2.234-1.186 4.237-2.926 5.392 2.926 1.156 5.298 3.543 6.247 6.548.158.539-.079 1.078-.632 1.232-.554.154-1.107-.077-1.266-.616-1.107-3.544-4.507-5.931-8.223-5.931-3.796 0-7.196 2.387-8.303 5.93-.159.54-.712.771-1.266.617-.553-.154-.79-.693-.632-1.232.949-3.005 3.321-5.392 6.247-6.548-1.74-1.155-2.926-3.158-2.926-5.392 0-3.62 3.084-6.624 6.88-6.624zm0 2.002c-2.689 0-4.824 2.08-4.824 4.622 0 2.62 2.135 4.699 4.824 4.699 2.609 0 4.744-2.08 4.744-4.699 0-2.542-2.135-4.622-4.744-4.622z"/>
            <path d="M47.431 21.648c3.48 0 6.405 2.773 6.405 6.24 0 2.079-1.028 3.928-2.61 5.006 2.69 1.078 4.824 3.312 5.694 6.162.238.462-.079 1.002-.632 1.156-.554.23-1.107-.077-1.265-.616-1.028-3.236-4.112-5.47-7.592-5.47-1.74 0-3.4.54-4.823 1.541-.396.308-1.028.231-1.345-.231-.395-.385-.237-1.001.159-1.31.711-.539 1.423-.924 2.135-1.232-1.582-1.078-2.61-2.927-2.61-5.007 0-3.466 2.926-6.24 6.484-6.24zm0 1.926c-2.451 0-4.428 1.925-4.428 4.313s1.977 4.314 4.428 4.314c2.373 0 4.35-1.926 4.35-4.314s-1.977-4.313-4.35-4.313zM18.648 23.574c-2.452 0-4.428 1.925-4.428 4.313s1.976 4.314 4.428 4.314c2.372 0 4.349-1.926 4.349-4.314s-1.977-4.313-4.35-4.313zm5.93 10.552c.396.309.554.925.159 1.31-.317.462-.95.54-1.345.231-1.423-1.001-3.084-1.54-4.744-1.54-3.559 0-6.643 2.233-7.67 5.469-.159.539-.712.847-1.266.616-.553-.154-.87-.694-.632-1.156.87-2.85 3.005-5.084 5.693-6.162-1.581-1.078-2.61-2.927-2.61-5.007 0-3.466 2.926-6.24 6.485-6.24 3.48 0 6.405 2.774 6.405 6.24 0 2.08-1.028 3.929-2.61 5.007.712.308 1.424.693 2.135 1.232z"/>
        </g>
    </g>
</svg>
