<svg width="66" height="66" viewBox="0 0 66 66" xmlns="http://www.w3.org/2000/svg">
    <g fill="none" fill-rule="evenodd">
        <circle fill="#4FB075" cx="33" cy="33" r="33"/>
        <path d="M54.476 26.74a12.17 12.17 0 0 0-.814-.873 2.23 2.23 0 0 0-2.569-.373c-.571-.11-.91-.445-1.009-1-.06-.344-.089-.704-.118-1.085a24.502 24.502 0 0 0-.055-.636c-.04-.385-.148-.95-.623-1.415-.594-.58-1.186-1.163-1.778-1.745l-1.53-1.504c-1.832-1.793-4.101-2.898-6.744-3.286-2.427-.356-4.973-.173-8.01.576-.443.109-.787.54-.783.986.003.273.016.546.03.824l.012.268c.02.43.361.777.797.811l.086.007c.07.006.136.012.202.014.962.04 1.923.203 2.937.5 1.79.524 3.23 1.326 4.401 2.452.245.236.398.549.399.816 0 .213-.095.41-.292.6-.262.255-.513.523-.767.795-.108.116-.217.233-.329.35l-2.37 2.418-3.806 3.658a3932.69 3932.69 0 0 0-5.759-5.646c-.045-.045-.067-.073-.074-.077a.842.842 0 0 1 .037-.163c1.008-3.353-.72-6.806-4.023-8.031-1.49-.553-2.95-.554-4.465-.003a.855.855 0 0 0-.546.622.841.841 0 0 0 .243.786l.756.718c.677.641 1.315 1.247 1.93 1.87.026.028.062.108.066.123a15.94 15.94 0 0 1-.275 2.028c-.31.058-.63.098-.967.139-.329.04-.658.081-.983.139-.166.03-.174.02-.274-.086-.59-.625-1.191-1.223-1.828-1.856-.254-.252-.512-.508-.774-.772a.872.872 0 0 0-1.446.35c-.032.105-.062.193-.087.271-.06.184-.104.323-.133.464-.482 2.303.288 4.613 2.057 6.178 1.77 1.566 4.19 2.074 6.47 1.36a.817.817 0 0 1 .052-.015l.045.042c1.964 1.948 3.864 3.83 5.714 5.66l-7.61 7.317c-.806.774-1.612 1.549-2.413 2.327-1.109 1.078-1.175 2.828-.147 3.902.795.83 1.527 1.565 2.237 2.247a2.838 2.838 0 0 0 2.07.794c.78-.023 1.5-.35 2.025-.92l9.386-10.19a3872.5 3872.5 0 0 0 3.563 3.506.677.677 0 0 1 .045.05 1.19 1.19 0 0 1-.036.16c-.735 2.672-.047 5.028 1.988 6.814 1.248 1.093 2.655 1.642 4.203 1.642.673 0 1.373-.104 2.098-.312a.863.863 0 0 0 .523-.42.838.838 0 0 0 .056-.663l-.015-.054a.992.992 0 0 0-.258-.474l-1.334-1.328-.862-.857c-.48-.479-1.134-1.431-.122-2.44.785-.783 1.624-.775 2.492.025.538.495 1.074.994 1.625 1.507l.838.78c.212.196.51.275.793.209a.86.86 0 0 0 .613-.536c.026-.069.05-.129.073-.183.057-.14.117-.287.152-.463.484-2.424-.185-4.545-1.935-6.133-1.82-1.651-4.071-2.144-6.511-1.426a1.168 1.168 0 0 1-.123.03 4252.668 4252.668 0 0 0-3.85-3.796l3.42-3.71c.043-.049.084-.099.127-.15l.016-.02 2.442-2.446.32-.314c.249-.243.494-.482.735-.725.143-.143.348-.28.807-.212.845.128 1.503.596 2.068 1.473.01.014.042.071.074.203l.01.041a1.506 1.506 0 0 0-.366 1.139c.04.535.253 1.033.616 1.439.256.285.519.562.783.825.473.47 1.095.707 1.71.707.573 0 1.14-.206 1.572-.622.967-.933 1.94-1.906 2.977-2.976.812-.84.865-2.14.122-3.025zM22.36 48.525a1.12 1.12 0 0 1-.797.362 1.1 1.1 0 0 1-.809-.311 73.96 73.96 0 0 1-2.186-2.197c-.39-.406-.343-1.09.104-1.524.799-.777 1.602-1.549 2.406-2.32l7.62-7.33c1.05 1.037 2.084 2.059 3.106 3.066L22.36 48.524zm17.257-8.46c.693.685 1.378.598 1.895.446 1.849-.545 3.477-.192 4.841 1.046 1.08.98 1.585 2.152 1.532 3.564-.45-.419-.891-.83-1.335-1.237-1.566-1.442-3.444-1.432-4.905.021-1.413 1.41-1.364 3.35.122 4.83l.863.86.35.347c-1.2.043-2.273-.356-3.241-1.205-1.557-1.366-2.038-3.034-1.47-5.1.151-.548.214-1.198-.457-1.857a3836.543 3836.543 0 0 1-7.877-7.765l-1.22-1.205a5141.915 5141.915 0 0 1-5.722-5.668c-.374-.372-.773-.554-1.225-.554-.197 0-.405.035-.625.104-1.688.53-3.48.155-4.788-1.003a4.738 4.738 0 0 1-1.623-3.652c.487.486.954.956 1.409 1.438.506.537 1.111.735 1.85.603.295-.052.592-.088.889-.125.403-.05.82-.1 1.241-.19.54-.113 1.069-.633 1.178-1.159.169-.806.281-1.61.335-2.392.033-.483-.188-1.054-.55-1.421a66.93 66.93 0 0 0-1.559-1.52 4.545 4.545 0 0 1 1.788.303c2.445.907 3.724 3.467 2.975 5.956-.159.526-.248 1.221.477 1.929a3883.51 3883.51 0 0 1 5.741 5.63l1.223 1.2 2.928 2.883 1.224 1.206c1.241 1.223 2.487 2.453 3.736 3.687zm-3.797-6.155c-.954-.94-1.907-1.879-2.855-2.81l3.182-3.06 2.632 2.657-2.959 3.213zm4.141-4.457-2.592-2.618 1.19-1.213 2.656 2.575-1.254 1.256zm13.14-.86a120.017 120.017 0 0 1-2.935 2.934c-.217.21-.594.18-.841-.065-.24-.24-.48-.493-.715-.754a.704.704 0 0 1-.183-.398c.354-.382.457-.885.307-1.495a2.309 2.309 0 0 0-.295-.716c-.83-1.285-1.929-2.04-3.267-2.242-1.152-.174-1.89.286-2.305.703l-.433.43-2.687-2.606c.159-.169.319-.335.484-.495.528-.514.807-1.141.805-1.815-.002-.73-.336-1.468-.918-2.028-1.377-1.324-3.051-2.262-5.118-2.867-.66-.193-1.32-.339-1.969-.436 2.208-.43 4.125-.504 5.95-.236 2.27.333 4.214 1.278 5.778 2.809l1.528 1.5c.593.584 1.186 1.168 1.782 1.75.048.046.095.125.122.381.02.197.035.394.05.591.031.405.063.823.139 1.249.234 1.326 1.205 2.228 2.595 2.412.305.04.624-.022.873-.171.205-.124.44-.105.595.047.263.257.492.502.699.75.19.225.172.548-.041.768z" fill="#FBFEF9" fill-rule="nonzero"/>
    </g>
</svg>
