<?xml version="1.0" encoding="UTF-8"?>
<svg width="184px" height="184px" viewBox="0 0 184 184" version="1.1" xmlns="http://www.w3.org/2000/svg" xmlns:xlink="http://www.w3.org/1999/xlink">
    <title>icon_policy</title>
    <g id="Page-1" stroke="none" stroke-width="1" fill="none" fill-rule="evenodd">
        <g id="3.3.1-Policy-Action-Center" transform="translate(-1068.000000, -457.000000)">
            <g id="Group" transform="translate(1068.000000, 457.000000)">
                <circle id="Oval" fill="#F7B945" cx="92" cy="92" r="92"></circle>
                <g id="noun-law-3846731" transform="translate(43.000000, 38.000000)" fill="#231F20" fill-rule="nonzero" stroke="#F7B945">
                    <path d="M96.6503832,71.029615 L66.2037224,42.2076282 C68.2432463,39.7211139 70.149823,37.1292693 71.9155225,34.4428747 C72.3865251,34.5815773 72.869626,34.6756548 73.3583894,34.723854 C75.5158789,34.7287674 77.5859084,33.8747603 79.1081596,32.3517407 L80.5618751,30.9036169 C83.738205,27.7385489 83.738205,22.6079735 80.5618751,19.4429056 L63.3451103,2.29776795 C60.1267358,-0.765922649 55.05852,-0.765922649 51.8401455,2.29776795 L50.38643,3.74048832 C48.2931402,5.78005038 47.5003933,8.80376088 48.3251916,11.6025038 C38.1031333,18.398963 29.3348269,27.1463981 22.5271659,37.3391224 C19.7742749,36.5820602 16.824312,37.3090349 14.7432788,39.2573461 L13.2895633,40.7000664 C11.7625517,42.2202298 10.9046033,44.2825989 10.9046033,46.4331238 C10.9046033,48.5836487 11.7625517,50.6460178 13.2895633,52.1661812 L30.4737823,69.3113188 C33.6510716,72.475431 38.8014578,72.475431 41.9787471,69.3113188 L43.4324626,67.8685984 C45.2809693,65.9744229 46.0671887,63.2909167 45.5316711,60.7036276 C48.2300061,58.9560946 50.8336942,57.0676553 53.3318311,55.0462185 L82.248836,85.9647428 C85.2538417,88.958155 89.7849922,89.8287866 93.6920659,88.163486 C97.5991396,86.4981855 100.095763,82.6321265 99.9971834,78.3999168 C99.9494573,75.5885517 98.7384164,72.9216053 96.6503832,71.029615 Z M54.2214182,7.56072542 L55.6751337,6.11800504 C56.7342302,5.06330097 58.4510256,5.06330097 59.510122,6.11800504 L76.7268868,23.2631427 C77.7856635,24.3181653 77.7856635,26.0283571 76.7268868,27.0833798 L75.2731714,28.5315036 C74.2140749,29.5862077 72.4972795,29.5862077 71.4381831,28.5315036 L54.2214182,11.386366 C53.7113068,10.8794996 53.4246206,10.1912708 53.4246206,9.47354569 C53.4246206,8.75582061 53.7113068,8.06759179 54.2214182,7.56072542 Z M51.3031386,16.1413994 L67.1095825,31.8654304 C60.7411155,41.402332 52.5277142,49.5786298 42.9496988,55.9161735 L27.1541036,40.1651252 C33.5434541,30.6563882 41.7490773,22.493344 51.3031386,16.1413994 L51.3031386,16.1413994 Z M39.6245959,64.0753786 L38.1708804,65.5180989 C37.1117839,66.572803 35.3949885,66.572803 34.3358921,65.5180989 L17.1191272,48.3405406 C16.0603506,47.285518 16.0603506,45.5753262 17.1191272,44.5203035 L18.5782671,43.0775832 C19.0821994,42.5654188 19.7731396,42.278797 20.493049,42.2832247 C21.2117478,42.2848617 21.9004302,42.570547 22.407831,43.0775832 L39.6245959,60.2281242 C40.6833725,61.2831469 40.6833725,62.9933387 39.6245959,64.0483613 L39.6245959,64.0753786 Z M93.1245807,82.1715229 C92.1541711,83.1142161 90.8437596,83.6282342 89.4886566,83.5977397 C88.1335535,83.5672452 86.8477804,82.9948039 85.9210949,82.0094195 L57.3729432,51.4745399 C59.1810471,49.8030736 60.9258673,48.0649648 62.6074039,46.2602135 L92.9835486,75.006552 C93.9774703,75.9253859 94.5547542,77.2065242 94.5833808,78.5569825 C94.6120073,79.9074409 94.0895281,81.2117126 93.1354293,82.1715229 L93.1245807,82.1715229 Z M55.6208906,89.9578902 L55.6208906,85.0947878 C55.6208906,80.6184256 51.9780701,76.9896171 47.4844233,76.9896171 L14.6998843,76.9896171 C10.2062375,76.9896171 6.56341697,80.6184256 6.56341697,85.0947878 L6.56341697,89.9578902 C2.75097617,90.7062456 0.00181265128,94.035555 0,97.9063608 L0,105.298276 C0,106.790397 1.2142735,108 2.71215577,108 L59.4721518,108 C60.9700341,108 62.1843076,106.790397 62.1843076,105.298276 L62.1843076,97.8793436 C62.1824949,94.0085377 59.4333314,90.6792284 55.6208906,89.9308729 L55.6208906,89.9578902 Z M11.9877285,85.0947878 C11.9877285,83.6026671 13.202002,82.3930642 14.6998843,82.3930642 L47.4844233,82.3930642 C48.9823056,82.3930642 50.1965791,83.6026671 50.1965791,85.0947878 L50.1965791,89.822804 L11.9877285,89.822804 L11.9877285,85.0947878 Z M56.759996,102.655991 L5.42431155,102.655991 L5.42431155,97.9279746 C5.42431155,96.4358539 6.63858505,95.2262511 8.13646732,95.2262511 L54.0478403,95.2262511 C55.5457225,95.2262511 56.759996,96.4358539 56.759996,97.9279746 L56.759996,102.655991 Z" id="Shape"></path>
                </g>
            </g>
        </g>
    </g>
</svg>