<?xml version="1.0" encoding="UTF-8"?>
<svg width="186px" height="42px" viewBox="0 0 186 42" version="1.1" xmlns="http://www.w3.org/2000/svg" xmlns:xlink="http://www.w3.org/1999/xlink">
    <title>Logo_AmeriCorps</title>
    <defs>
        <polygon id="path-1" points="0 0 41.8896471 0 41.8896471 41.8130533 0 41.8130533"></polygon>
    </defs>
    <g id="Symbols" stroke="none" stroke-width="1" fill="none" fill-rule="evenodd">
        <g id="Footer/Desktop" transform="translate(-980.000000, -539.000000)">
            <g id="Group" transform="translate(836.000000, 539.000000)">
                <g transform="translate(144.000000, 0.000000)" id="Logo_AmeriCorps">
                    <g id="Group-3" transform="translate(0.000000, 0.000000)">
                        <mask id="mask-2" fill="white">
                            <use xlink:href="#path-1"></use>
                        </mask>
                        <g id="Clip-2"></g>
                        <path d="M20.9438872,-0.00028 C9.3763365,-0.00028 0,9.35918667 0,20.9054533 C0,32.4535867 9.3763365,41.8130533 20.9438872,41.8130533 C32.5114378,41.8130533 41.8896471,32.4535867 41.8896471,20.9054533 C41.8896471,9.35918667 32.5114378,-0.00028 20.9438872,-0.00028 L20.9438872,-0.00028 Z M29.6600502,30.9182533 L26.8273908,25.23052 L19.0289158,25.23052 C18.4848579,25.23052 18.0400602,25.6719867 18.0400602,26.2170533 L18.0400602,26.88532 C18.0400602,27.61332 17.4491815,28.20132 16.7197132,28.20132 L9.31266019,28.20132 L7.89960798,31.03492 L6.28990834,31.03492 L8.62907628,26.35052 L17.052141,26.35052 C17.5961989,26.35052 18.0400602,25.9099867 18.0400602,25.36492 L18.0400602,24.6966533 C18.0400602,23.9686533 18.6318753,23.3787867 19.3604072,23.3787867 L25.9003387,23.3787867 L25.2055178,21.99092 L19.0289158,21.99092 C18.4857943,21.99092 18.041933,22.4295867 18.0400602,22.9746533 L18.0400602,23.6447867 C18.0400602,24.3718533 17.4491815,24.9626533 16.7197132,24.9626533 L9.32389718,24.9626533 L10.2490765,23.11092 L17.052141,23.11092 C17.5961989,23.11092 18.0381874,22.6703867 18.0400602,22.1271867 L18.0400602,21.4579867 C18.0400602,20.7299867 18.6318753,20.14012 19.3604072,20.14012 L24.2775292,20.14012 L23.5827083,18.75132 L19.0289158,18.75132 C18.4848579,18.75132 18.041933,19.19092 18.0400602,19.73412 L18.0400602,20.4042533 C18.0400602,21.1322533 17.4491815,21.7239867 16.7197132,21.7239867 L10.9410881,21.7239867 L11.8681403,19.8703867 L17.052141,19.8703867 C17.5961989,19.8703867 18.0381874,19.4298533 18.0400602,18.8866533 L18.0400602,18.2174533 C18.0400602,17.4894533 18.629066,16.8995867 19.3585343,16.8995867 L22.6537833,16.8995867 L17.9951122,7.59798667 L23.2484077,7.59798667 C24.1267662,7.59798667 24.9302114,8.09358667 25.3235062,8.87758667 L36.3488718,30.9182533 L29.6600502,30.9182533 Z" id="Fill-1" fill="#1D1D1B" mask="url(#mask-2)"></path>
                    </g>
                    <path d="M63.6130072,26.1703867 L56.8314803,26.1703867 L55.5691911,29.7291867 L51.4601964,29.7291867 L58.0684863,12.2114533 L62.597932,12.2114533 L69.1331814,29.7291867 L64.8752964,29.7291867 L63.6130072,26.1703867 Z M58.1181163,22.61252 L62.3750649,22.61252 L60.2718738,16.5598533 L58.1181163,22.61252 Z" id="Fill-4" fill="#1D1D1B"></path>
                    <path d="M70.5291908,29.72872 L70.5291908,17.4497867 L74.1184745,17.4497867 L74.1184745,18.8581867 C74.7374457,17.7708533 76.3218621,17.0792533 77.6581282,17.0792533 C79.4148452,17.0792533 80.6771343,17.79512 81.2961055,19.0056533 C82.2615507,17.6224533 83.4489266,17.0792533 85.1073199,17.0792533 C87.4343144,17.0792533 89.6620488,18.4372533 89.6620488,21.7729867 L89.6620488,29.72872 L86.0240715,29.72872 L86.0240715,22.6129867 C86.0240715,21.45192 85.4051003,20.5381867 84.0678978,20.5381867 C82.7316317,20.5381867 82.0143368,21.5508533 82.0143368,22.6372533 L82.0143368,29.72872 L78.3014462,29.72872 L78.3014462,22.6129867 C78.3014462,21.45192 77.682475,20.5381867 76.3218621,20.5381867 C75.0099428,20.5381867 74.2917115,21.5508533 74.2917115,22.6624533 L74.2917115,29.72872 L70.5291908,29.72872 Z" id="Fill-6" fill="#1D1D1B"></path>
                    <path d="M103.137735,26.1950267 C102.542174,28.3192933 100.586937,30.09916 97.4686707,30.09916 C94.0779072,30.09916 91.058901,27.6780933 91.058901,23.5518267 C91.058901,19.59916 94.0048667,17.0782267 97.1961735,17.0782267 C101.009261,17.0782267 103.359666,19.42556 103.359666,23.3782267 C103.359666,23.89716 103.310972,24.46556 103.284752,24.5402267 L94.723098,24.5402267 C94.7961385,25.9234267 96.0574913,26.9118267 97.5192371,26.9118267 C98.8807865,26.9118267 99.646775,26.26876 99.9941854,25.30556 L103.137735,26.1950267 Z M99.7216883,22.11916 C99.6729947,21.1802267 99.0287402,20.0434267 97.24674,20.0434267 C95.6623236,20.0434267 94.8710518,21.2044933 94.7961385,22.11916 L99.7216883,22.11916 Z" id="Fill-8" fill="#1D1D1B"></path>
                    <path d="M112.581493,21.1555867 C112.161043,21.0575867 111.764938,21.0314533 111.392245,21.0314533 C109.883678,21.0314533 108.523065,21.9218533 108.523065,24.3671867 L108.523065,29.7291867 L104.759608,29.7291867 L104.759608,17.4502533 L108.398522,17.4502533 L108.398522,19.1050533 C109.042776,17.7218533 110.601909,17.32612 111.590765,17.32612 C111.962522,17.32612 112.333343,17.3755867 112.581493,17.4502533 L112.581493,21.1555867 Z" id="Fill-10" fill="#1D1D1B"></path>
                    <path d="M115.835166,11.4954933 C117.072172,11.4954933 118.0629,12.4838933 118.0629,13.6934933 C118.0629,14.90496 117.072172,15.8924267 115.835166,15.8924267 C114.646853,15.8924267 113.657061,14.90496 113.657061,13.6934933 C113.657061,12.4838933 114.646853,11.4954933 115.835166,11.4954933 L115.835166,11.4954933 Z M113.979188,29.72816 L117.742646,29.72816 L117.742646,17.45016 L113.979188,17.45016 L113.979188,29.72816 Z" id="Fill-12" fill="#1D1D1B"></path>
                    <path d="M119.129104,21.0074667 C119.129104,15.5474667 123.287728,11.8412 128.188931,11.8412 C133.460955,11.8412 135.786077,15.2264 136.356354,17.7464 L132.667811,18.9074667 C132.395313,17.6969333 131.282851,15.6464 128.188931,15.6464 C125.836654,15.6464 123.189405,17.3264 123.189405,21.0074667 C123.189405,24.2928 125.614723,26.1949333 128.238561,26.1949333 C131.282851,26.1949333 132.494574,24.1696 132.841984,22.9096 L136.579221,23.9717333 C136.008944,26.3928 133.682886,30.0990667 128.238561,30.0990667 C123.189405,30.0990667 119.129104,26.4665333 119.129104,21.0074667" id="Fill-14" fill="#1D1D1B"></path>
                    <path d="M150.579488,23.5654533 C150.579488,27.36972 147.732782,30.0875867 144.044239,30.0875867 C140.380978,30.0875867 137.510862,27.36972 137.510862,23.5654533 C137.510862,19.7611867 140.380978,17.06852 144.044239,17.06852 C147.732782,17.06852 150.579488,19.7611867 150.579488,23.5654533 M146.816031,23.5654533 C146.816031,21.48972 145.480701,20.52652 144.044239,20.52652 C142.633996,20.52652 141.272446,21.48972 141.272446,23.5654533 C141.272446,25.6159867 142.633996,26.6286533 144.044239,26.6286533 C145.480701,26.6286533 146.816031,25.6411867 146.816031,23.5654533" id="Fill-16" fill="#1D1D1B"></path>
                    <path d="M159.797289,21.1456 C159.376838,21.0476 158.980734,21.0224 158.608041,21.0224 C157.099474,21.0224 155.737925,21.9118667 155.737925,24.3572 L155.737925,29.7192 L151.974467,29.7192 L151.974467,17.4402667 L155.614318,17.4402667 L155.614318,19.0950667 C156.257636,17.7118667 157.816769,17.3161333 158.805624,17.3161333 C159.178318,17.3161333 159.548203,17.3656 159.797289,17.4402667 L159.797289,21.1456 Z" id="Fill-18" fill="#1D1D1B"></path>
                    <path d="M161.195546,34.4127467 L161.195546,17.44008 L164.83446,17.44008 L164.83446,18.70008 C165.353235,17.9086133 166.690437,17.14328 168.447154,17.14328 C172.012091,17.14328 174.165848,19.8611467 174.165848,23.5422133 C174.165848,27.2979467 171.74053,29.9906133 168.2992,29.9906133 C166.71572,29.9906133 165.528344,29.4474133 164.958067,28.75488 L164.958067,34.4127467 L161.195546,34.4127467 Z M167.681165,20.52848 C166.21942,20.52848 164.909373,21.5159467 164.909373,23.5674133 C164.909373,25.5927467 166.21942,26.6306133 167.681165,26.6306133 C169.165385,26.6306133 170.478241,25.6170133 170.478241,23.5674133 C170.478241,21.5159467 169.165385,20.52848 167.681165,20.52848 L167.681165,20.52848 Z" id="Fill-20" fill="#1D1D1B"></path>
                    <path d="M178.288796,25.66732 C178.338426,26.5063867 178.932114,27.32212 180.219686,27.32212 C181.185131,27.32212 181.655212,26.80412 181.655212,26.2599867 C181.655212,25.8147867 181.356496,25.4451867 180.442553,25.24732 L179.031374,24.92532 C176.406599,24.3578533 175.368113,22.87572 175.368113,21.14532 C175.368113,18.8978533 177.348634,17.0694533 180.095143,17.0694533 C183.658207,17.0694533 184.897086,19.2926533 185.019756,20.7262533 L181.902426,21.29372 C181.804103,20.47892 181.283455,19.78732 180.144773,19.78732 C179.427478,19.78732 178.808507,20.20732 178.808507,20.8494533 C178.808507,21.3683867 179.228958,21.6651867 179.773952,21.7631867 L181.407999,22.0842533 C183.956924,22.60412 185.194866,24.1347867 185.194866,25.93892 C185.194866,28.03892 183.585166,30.0894533 180.293663,30.0894533 C176.431882,30.0894533 175.194876,27.59372 175.096553,26.2347867 L178.288796,25.66732 Z" id="Fill-22" fill="#1D1D1B"></path>
                </g>
            </g>
        </g>
    </g>
</svg>