<?xml version="1.0" encoding="UTF-8"?>
<svg width="1440px" height="719px" viewBox="0 0 1440 719" version="1.1" xmlns="http://www.w3.org/2000/svg" xmlns:xlink="http://www.w3.org/1999/xlink">
    <title>quote-bg</title>
    <g id="Image-modules" stroke="none" stroke-width="1" fill="none" fill-rule="evenodd">
        <g id="Quote-L-+-Image-R-(Dark)" fill-rule="nonzero">
            <g id="quote-bg">
                <path d="M789.156254,347.974973 C644.424895,347.974973 312.883847,305.537446 0.330625847,525.11555 C-0.817547972,578.618888 1.48661038,673.181538 0.330625847,718.06205 C181.25363,525.11555 394.578127,395.729631 789.156254,347.974973 Z" id="quote-corner-wave" fill="#4FB075"></path>
                <path d="M1440,0 C1383.40363,282.060224 1129.8681,352.101966 865.132022,348.349886 C600.395944,344.597806 193.250874,348.349886 0.330625847,669.588613 C0.330625847,669.588613 0,718.077248 0,718.077248 C89.7801476,718.077248 329.777754,718.077248 719.992818,718.077248 C853.584698,718.077248 1093.58709,718.077248 1440,718.077248 C1440,329.662542 1440,90.9701261 1440,0 Z" id="quote-wave-bg" fill="#00524C"></path>
            </g>
        </g>
    </g>
</svg>