<?xml version="1.0" encoding="UTF-8"?>
<svg width="184px" height="185px" viewBox="0 0 184 185" version="1.1" xmlns="http://www.w3.org/2000/svg" xmlns:xlink="http://www.w3.org/1999/xlink">
    <title>icon_health</title>
    <g id="Page-1" stroke="none" stroke-width="1" fill="none" fill-rule="evenodd">
        <g id="3.1.1-What-You'll-Do" transform="translate(-944.000000, -1765.000000)">
            <g id="5-icons" transform="translate(80.000000, 1765.625000)">
                <g id="Group" transform="translate(864.000000, 0.000000)">
                    <circle id="Oval" fill="#00524C" cx="92" cy="92" r="92"></circle>
                    <g id="noun-medical-aid-4297681" transform="translate(45.000000, 39.375000)" fill="#FBFEF9" fill-rule="nonzero">
                        <path d="M98.0746088,55.9489628 C99.231328,55.9826458 100.35128,55.5396966 101.173381,54.7233754 C101.995483,53.9070542 102.447896,52.7886943 102.425154,51.6290075 C102.556144,49.2394107 100.729698,47.195823 98.3456708,47.0645265 C95.961644,46.93323 93.9228196,48.763944 93.791829,51.1535407 C77.6771923,58.2312034 70.0196904,70.702018 67.8240881,89.5440876 C67.3487486,93.5964542 66.1165467,97.5229051 64.1918571,101.118308 C58.6486389,111.537823 42.506896,111.578577 37.0856557,101.00963 C33.0197255,93.1032961 34.2259515,89.8293677 34.0362081,83.267926 C35.0817192,83.3430067 36.11165,82.9812915 36.8817659,82.2685565 C37.6518818,81.5558215 38.0935875,80.5555509 38.1021383,79.504946 L38.1021383,70.5390009 C42.7265383,69.131996 47.0283156,66.8237371 50.7607343,63.7466182 C51.6020772,63.0639713 52.1138604,62.0547208 52.1681733,60.9711099 C52.2224862,59.8874991 51.8141968,58.8319169 51.0453494,58.0681862 C58.4724486,51.0448626 61.1966218,36.5227484 63.6497331,24.3643834 C65.5065078,14.9365562 59.0010195,8.32077546 50.991137,5.68533098 C50.7911688,3.49189898 49.267851,1.64669804 47.1556095,1.03934122 L47.1556095,1.03934122 L45.0006665,0.414442016 C43.0551484,-0.394066684 40.8185265,1.98074167e-06 39.2647162,1.42507641 C37.7109058,2.85014235 37.1211445,5.04826215 37.7522379,7.06228598 C38.3833313,9.07630982 40.1210525,10.5417022 42.2087278,10.8203723 C43.4213409,11.1764492 44.6646577,11.4175067 45.9222774,11.5403649 C47.4746831,11.5545363 48.9461002,10.847208 49.906889,9.62491294 C54.7995583,11.3637629 61.1830687,15.2897601 59.6786746,23.6579756 C55.5043195,44.9045486 52.6717215,50.3927938 48.6193444,54.8078426 C48.0041856,53.822783 46.9721701,53.1750426 45.8194329,53.0504893 C44.6666956,52.9259361 43.5206651,53.3383385 42.7101925,54.1693586 C36.6803738,59.8471724 27.2854528,59.8471724 21.2556341,54.1693586 C20.4471602,53.3423011 19.3058606,52.9310375 18.1570737,53.0528022 C17.0082867,53.1745669 15.9780474,53.8160011 15.3600353,54.7942578 C11.2941051,50.3520395 8.48861328,44.9317181 4.31425827,23.6579756 C2.79631099,15.2897601 9.19337452,11.4316867 14.0860439,9.62491294 C15.045506,10.848867 16.5177894,11.5566118 18.0706555,11.5403649 C19.324771,11.4240477 20.5642165,11.1828605 21.7706519,10.8203723 C23.8583272,10.5417022 25.5960484,9.07630982 26.2271418,7.06228598 C26.8582353,5.04826215 26.2684739,2.85014235 24.7146635,1.42507641 C23.1608532,1.98074167e-06 20.9242313,-0.394066684 18.9787132,0.414442016 L16.8373233,1.03934122 L16.8373233,1.03934122 C14.7058178,1.64082393 13.1679214,3.50142876 12.9746896,5.71250051 C4.951254,8.36152976 -1.52712812,14.9365562 0.31609357,24.3779681 C2.76920479,36.604257 5.49337803,51.0312778 12.9069241,58.0681862 C12.1374765,58.8343237 11.7290016,59.892054 11.7832912,60.9777909 C11.8375807,62.0635278 12.349522,63.0750197 13.1915392,63.7602029 C16.9239579,66.8373218 21.2257352,69.1455808 25.8501353,70.5525856 L25.8501353,79.5185308 C25.858686,80.5691357 26.3003917,81.5694062 27.0705076,82.2821412 C27.8406235,82.9948762 28.8705544,83.3565914 29.9160655,83.2815108 L29.9160655,90.3455888 C30.2006806,100.860197 37.2347398,113.331012 50.5709909,112.991393 C57.6621747,113.205349 64.2744398,109.416584 67.6885571,103.183192 C69.8638139,99.1354407 71.2700794,94.7179261 71.8358059,90.1554021 C73.9636427,72.7261481 80.5640027,61.4372081 95.2962231,54.9844445 C96.0803521,55.6234808 97.0641296,55.9649998 98.0746088,55.9489628 Z M45.3259409,7.39701142 L43.1574448,6.8536208 C42.5840547,6.85948694 42.0690321,6.5030259 41.8713694,5.96349338 C41.6737067,5.42396086 41.8361848,4.81813 42.2770975,4.45065859 C42.7180101,4.08318717 43.3419288,4.03360848 43.8350999,4.32685444 L45.9629367,4.95175365 C46.3099526,5.04699968 46.6049442,5.27664084 46.7829027,5.59006997 C46.9608613,5.9034991 47.0071808,6.27499158 46.9116537,6.62267979 C46.7761227,7.12531611 46.3966359,7.68229149 45.3259409,7.39701142 Z M17.9757838,4.96533841 L20.1036206,4.34043921 C20.5967916,4.04719324 21.2207103,4.09677194 21.661623,4.46424335 C22.1025356,4.83171477 22.2650138,5.43754563 22.0673511,5.97707815 C21.8696883,6.51661066 21.3546657,6.8730717 20.7812756,6.86720557 L18.6263326,7.39701142 C17.7724872,7.62795243 17.203257,7.39701142 17.0135136,6.64984932 C16.9142917,6.29845131 16.9604027,5.92180956 17.1414452,5.60488389 C17.3224877,5.28795823 17.6232123,5.05744388 17.9757838,4.96533841 Z M28.3032465,66.9797923 C23.7731895,65.8551169 19.5475277,63.7396692 15.9292656,60.7851393 L18.5721202,57.2802699 C26.1283486,64.2794563 37.7832656,64.2794563 45.339494,57.2802699 L47.9823487,60.7851393 C44.3640865,63.7396692 40.1384247,65.8551169 35.6083677,66.9797923 C34.6860893,67.2000635 34.0355031,68.0264394 34.0362081,68.9767528 L34.0362081,79.2060812 L29.8754062,79.2060812 L29.8754062,68.9631681 C29.8761111,68.0128546 29.2255249,67.1864787 28.3032465,66.9662076 L28.3032465,66.9797923 Z" id="Shape"></path>
                        <path d="M98.0746088,39.6608163 C92.2995642,39.6523953 87.3462184,43.7879207 86.3105174,49.4826145 C86.113254,50.5890171 86.8469846,51.646599 87.9504426,51.8463637 C88.4810171,51.9450971 89.0289451,51.8268687 89.4719909,51.5180538 C89.9150367,51.2092389 90.2163394,50.7355306 90.3086821,50.2026071 C90.9340292,46.7917851 93.7039231,44.1875654 97.1398091,43.7800665 C100.575695,43.3725676 103.875459,45.2569211 105.277703,48.427269 C106.679948,51.597617 105.857317,55.3138351 103.248927,57.5922261 C100.640536,59.870617 96.8553203,60.1792857 93.9138069,58.3534663 C92.9604131,57.7758781 91.720838,58.0749498 91.1340911,59.0241272 C90.5473442,59.9733046 90.8319966,61.2190061 91.772417,61.8175815 C96.0767147,64.4894382 101.594178,64.1499475 105.540117,60.9704519 C109.486056,57.7909562 111.002519,52.4627627 109.32414,47.6750351 C107.645761,42.8873075 103.137465,39.6810253 98.0746088,39.6744139 L98.0746088,39.6608163 Z" id="Path"></path>
                        <path d="M31.9490306,21.375735 C27.8831004,16.8384233 20.7812756,15.3033449 15.4142477,20.7236662 C13.6794508,22.6119486 11.9311009,26.062479 13.4490481,31.79525 C16.4442834,42.4728756 30.3226585,51.3029731 31.9490306,51.425236 C33.8193585,51.1535407 47.5350963,42.2962737 50.4625661,31.79525 C51.9669603,26.062479 50.2186103,22.6119486 48.4838134,20.7100815 C43.1303386,15.3033449 36.0149608,16.8384233 31.9490306,21.375735 Z M33.7109336,25.7092751 C35.0592796,23.517558 37.2259645,21.9572262 39.7285104,21.375735 C41.8693892,21.1641951 43.9910878,21.9329861 45.5021312,23.4677888 C47.0336316,25.138715 47.3724591,27.5432185 46.54572,30.7492231 C44.5398611,38.3159374 35.1204561,44.9453029 31.9761368,47.0509415 C28.8318174,45.0132267 19.4124124,38.3838612 17.3930004,30.8171469 C16.5662613,27.6518966 16.9050888,25.2066388 18.4365892,23.5357127 C19.9326734,21.9950725 22.0493334,21.2244894 24.1831039,21.4436588 C26.680847,22.0274401 28.8452203,23.5812211 30.2006806,25.7636142 C30.5783745,26.3826287 31.2542294,26.7555864 31.9780549,26.7444247 C32.7018804,26.7332629 33.3659693,26.3396424 33.7244867,25.7092751 L33.7109336,25.7092751 Z" id="Shape"></path>
                    </g>
                </g>
            </g>
        </g>
    </g>
</svg>