<?xml version="1.0" encoding="UTF-8"?>
<svg width="184px" height="185px" viewBox="0 0 184 185" version="1.1" xmlns="http://www.w3.org/2000/svg" xmlns:xlink="http://www.w3.org/1999/xlink">
    <title>Icon_training</title>
    <g id="Page-1" stroke="none" stroke-width="1" fill="none" fill-rule="evenodd">
        <g id="3.1.1-What-You'll-Do" transform="translate(-80.000000, -2431.000000)">
            <g id="5-icons" transform="translate(80.000000, 1765.625000)">
                <g id="Group" transform="translate(0.000000, 666.000000)">
                    <circle id="Oval" fill="#00524C" cx="92" cy="92" r="92"></circle>
                    <g id="noun-training-3087763" transform="translate(40.000000, 40.375000)" fill="#FBFEF9" fill-rule="nonzero">
                        <path d="M91.005848,8.96551724 L61.2748538,8.96551724 L61.2748538,6.27586207 C61.2748538,2.68965517 58.5555556,0 54.9298246,0 L50.3976608,0 C46.7719298,0 44.0526316,2.68965517 44.0526316,6.27586207 L44.0526316,8.96551724 L14.3216374,8.96551724 C13.2339181,8.96551724 12.5087719,9.68275862 12.5087719,10.7586207 L12.5087719,56.8413793 L0.543859649,68.8551724 C-0.18128655,69.5724138 -0.18128655,70.6482759 0.543859649,71.3655172 C0.906432749,71.7241379 1.26900585,71.9034483 1.8128655,71.9034483 C2.35672515,71.9034483 2.71929825,71.7241379 3.08187135,71.3655172 L12.5087719,62.0413793 L12.5087719,73.1586207 C12.5087719,74.2344828 13.2339181,74.9517241 14.3216374,74.9517241 L37.7076023,74.9517241 L34.0818713,102.027586 C34.0818713,102.565517 34.0818713,103.103448 34.4444444,103.462069 C34.8070175,103.82069 35.3508772,104 35.8947368,104 L42.7836257,104 C43.6900585,104 44.4152047,103.282759 44.5964912,102.386207 L48.2222222,74.9517241 L57.2865497,74.9517241 L61.0935673,102.386207 C61.2748538,103.282759 62,104 62.9064327,104 L69.6140351,104 C70.1578947,104 70.7017544,103.82069 71.0643275,103.462069 C71.4269006,103.103448 71.6081871,102.565517 71.4269006,102.027586 L67.8011696,74.9517241 L91.1871345,74.9517241 C92.2748538,74.9517241 93,74.2344828 93,73.1586207 L93,10.7586207 C92.8187135,9.68275862 92.0935673,8.96551724 91.005848,8.96551724 Z M47.6783626,6.27586207 C47.6783626,4.84137931 48.9473684,3.5862069 50.3976608,3.5862069 L54.9298246,3.5862069 C56.380117,3.5862069 57.6491228,4.84137931 57.6491228,6.27586207 L57.6491228,8.96551724 L47.6783626,8.96551724 L47.6783626,6.27586207 Z M40.9707602,100.413793 L37.7076023,100.413793 L41.1520468,74.9517241 L44.2339181,74.9517241 L40.9707602,100.413793 Z M64.5380117,100.413793 L60.9122807,74.9517241 L63.994152,74.9517241 L67.619883,100.413793 L64.5380117,100.413793 Z M89.1929825,71.3655172 L65.625731,71.3655172 L58.9181287,71.3655172 L16.1345029,71.3655172 L16.1345029,58.4551724 L28.6432749,45.9034483 C29.3684211,45.1862069 29.3684211,44.1103448 28.6432749,43.3931034 C27.9181287,42.6758621 26.8304094,42.6758621 26.1052632,43.3931034 L16.1345029,53.2551724 L16.1345029,12.5517241 L45.8654971,12.5517241 L59.4619883,12.5517241 L89.1929825,12.5517241 L89.1929825,71.3655172 Z" id="Shape"></path>
                        <path d="M32.8128655,37.6551724 C32.8128655,38.7310345 33.5380117,39.4482759 34.625731,39.4482759 L70.8830409,39.4482759 C71.9707602,39.4482759 72.6959064,38.7310345 72.6959064,37.6551724 C72.6959064,36.5793103 71.9707602,35.862069 70.8830409,35.862069 L34.625731,35.862069 C33.5380117,35.862069 32.8128655,36.5793103 32.8128655,37.6551724 Z" id="Path"></path>
                        <path d="M70.8830409,44.8275862 L34.625731,44.8275862 C33.5380117,44.8275862 32.8128655,45.5448276 32.8128655,46.6206897 C32.8128655,47.6965517 33.5380117,48.4137931 34.625731,48.4137931 L70.8830409,48.4137931 C71.9707602,48.4137931 72.6959064,47.6965517 72.6959064,46.6206897 C72.6959064,45.5448276 71.9707602,44.8275862 70.8830409,44.8275862 Z" id="Path"></path>
                    </g>
                </g>
            </g>
        </g>
    </g>
</svg>