<?xml version="1.0" encoding="UTF-8"?>
<svg width="450px" height="361px" viewBox="0 0 450 361" version="1.1" xmlns="http://www.w3.org/2000/svg" xmlns:xlink="http://www.w3.org/1999/xlink">
    <title>shape@1x</title>
    <g id="Page-1" stroke="none" stroke-width="1" fill="none" fill-rule="evenodd">
        <g id="1.3.1-Bios" transform="translate(-527.000000, -248.000000)" fill="#00524C" fill-rule="nonzero">
            <g id="Group-2" transform="translate(486.876368, 199.597900)">
                <g id="shape" transform="translate(260.623632, 223.902100) rotate(13.000000) translate(-260.623632, -223.902100) translate(34.123632, 46.402100)">
                    <path d="M388.382032,24.6591967 C434.509584,56.1331772 459.008864,123.768752 451.73564,184.229408 C444.558117,244.594398 405.608089,297.880134 359.480537,326.675478 C313.448686,355.566487 260.143611,360.06277 216.599968,350.400545 C173.056325,340.642654 139.274114,316.726256 98.8885809,287.930912 C58.5987485,259.039902 11.7055945,225.269948 1.94416242,181.742102 C-7.72156934,138.214257 19.7444209,84.9285211 60.1299536,53.5502062 C100.419786,22.1718913 153.724861,12.5096663 214.111759,5.33474669 C274.594358,-1.84017288 342.25448,-6.71911818 388.382032,24.6591967" id="Path"></path>
                </g>
            </g>
        </g>
    </g>
</svg>